<?xml version="1.0" encoding="UTF-8" standalone="no"?>
<!-- Created with Inkscape (http://www.inkscape.org/) -->

<svg
   xmlns:dc="http://purl.org/dc/elements/1.1/"
   xmlns:cc="http://creativecommons.org/ns#"
   xmlns:rdf="http://www.w3.org/1999/02/22-rdf-syntax-ns#"
   xmlns:svg="http://www.w3.org/2000/svg"
   xmlns="http://www.w3.org/2000/svg"
   xmlns:sodipodi="http://sodipodi.sourceforge.net/DTD/sodipodi-0.dtd"
   xmlns:inkscape="http://www.inkscape.org/namespaces/inkscape"
   width="149.28171mm"
   height="47.607578mm"
   viewBox="0 0 528.95095 168.68827"
   id="svg2"
   version="1.1"
   inkscape:version="0.91 r13725"
   sodipodi:docname="Logo.svg"
   inkscape:export-filename="/home/jraleman/Desktop/NASA Space App/Logo.svg.png"
   inkscape:export-xdpi="383.436"
   inkscape:export-ydpi="383.436">
  <defs
     id="defs4" />
  <sodipodi:namedview
     id="base"
     pagecolor="#ffffff"
     bordercolor="#666666"
     borderopacity="1.0"
     inkscape:pageopacity="0.0"
     inkscape:pageshadow="2"
     inkscape:zoom="2.8"
     inkscape:cx="61.860841"
     inkscape:cy="76.388908"
     inkscape:document-units="px"
     inkscape:current-layer="layer1"
     showgrid="false"
     inkscape:window-width="1280"
     inkscape:window-height="747"
     inkscape:window-x="0"
     inkscape:window-y="25"
     inkscape:window-maximized="1"
     fit-margin-top="0"
     fit-margin-left="0"
     fit-margin-right="0"
     fit-margin-bottom="0" />
  <metadata
     id="metadata7">
    <rdf:RDF>
      <cc:Work
         rdf:about="">
        <dc:format>image/svg+xml</dc:format>
        <dc:type
           rdf:resource="http://purl.org/dc/dcmitype/StillImage" />
        <dc:title />
      </cc:Work>
    </rdf:RDF>
  </metadata>
  <g
     inkscape:label="Layer 1"
     inkscape:groupmode="layer"
     id="layer1"
     transform="translate(-251.94227,-307.44794)">
    <g
       id="g3359"
       inkscape:export-xdpi="383.436"
       inkscape:export-ydpi="383.436">
      <text
         sodipodi:linespacing="125%"
         id="text3336"
         y="379.08295"
         x="628.61401"
         style="font-style:normal;font-weight:normal;font-size:49.42437363px;line-height:125%;font-family:sans-serif;text-align:center;letter-spacing:0px;word-spacing:0px;text-anchor:middle;fill:#000000;fill-opacity:1;stroke:none;stroke-width:1px;stroke-linecap:butt;stroke-linejoin:miter;stroke-opacity:1"
         xml:space="preserve"><tspan
           style="font-style:normal;font-variant:normal;font-weight:bold;font-stretch:normal;font-family:Montserrat;-inkscape-font-specification:'Montserrat Bold';text-align:center;text-anchor:middle"
           y="379.08295"
           x="635.12994"
           id="tspan3338"
           sodipodi:role="line"><tspan
             id="tspan3359"
             style="text-align:center;text-anchor:middle;fill:#d40000">Mars</tspan><tspan
             id="tspan3361"
             style="text-align:center;text-anchor:middle;fill:#ac9393">Tronics</tspan><tspan
             id="tspan3363"
             style="text-align:center;text-anchor:middle;fill:#333333" /></tspan><tspan
           id="tspan3346"
           style="font-style:normal;font-variant:normal;font-weight:bold;font-stretch:normal;font-family:Montserrat;-inkscape-font-specification:'Montserrat Bold';text-align:center;text-anchor:middle"
           y="440.8634"
           x="628.61401"
           sodipodi:role="line"><tspan
             id="tspan3348"
             style="text-align:center;text-anchor:middle;fill:#333333">Jet Pack</tspan></tspan></text>
      <path
         style="fill:#333333"
         inkscape:connector-curvature="0"
         d="m 462.64266,424.17835 c -5.82486,-5.35887 -15.14465,-5.59188 -20.73654,0 l -13.7467,-13.74669 c 0.46599,-0.233 0.69899,-0.69898 1.16499,-0.93197 l 25.16344,-25.16346 -2.09696,-2.09694 c 3.96092,-5.59189 3.49493,-13.28072 -1.39796,-18.17361 l -1.39798,-1.39798 -8.38781,8.38782 0,0 -14.44569,13.9797 0,-10.48476 c 0,-1.86396 -0.46598,-3.72793 -1.16496,-5.59189 8.8538,-6.05787 14.67866,-16.30964 14.67866,-27.72638 0,-18.6396 -15.37765,-33.78426 -34.48322,-33.78426 -19.10559,0 -34.48325,15.14466 -34.48325,33.78426 0,1.86396 0.233,3.49491 0.46599,5.35888 l -10.25176,0 c -3.49494,0 -6.29087,2.79593 -6.29087,6.29085 l 0,64.30659 c 0,3.49493 2.79593,6.29086 6.29087,6.29086 l 10.01877,0 -16.07665,16.07664 0,0 0,0 30.28934,30.28934 6.29085,6.29085 6.52386,-6.52384 c 5.59188,-6.05788 5.59188,-15.14468 0,-20.73655 l 8.15482,-8.15483 26.09542,26.09543 0,0 0,0 15.37767,-15.37765 14.67867,-14.67868 6.29086,-6.29087 -6.52386,-6.29086 z m -18.63958,2.32996 c 0,-0.23299 0,-0.23299 0,0 4.4269,-4.19392 11.18376,-4.42691 15.84364,-0.69899 l -3.9609,3.96091 -4.19391,3.96092 -3.26193,3.26193 -5.1259,5.12589 c -2.79593,-3.49494 -3.4949,-8.38782 -1.63094,-12.11574 0.46598,-1.39797 1.16496,-2.56295 2.32994,-3.49492 z m 5.35888,-58.01572 c 2.09695,3.26191 2.09695,7.45583 0.23299,10.71776 l -5.35888,-5.35888 5.12589,-5.35888 z m -8.15482,8.15481 0.69898,0.69899 6.75686,6.75685 -22.36751,22.3675 c -1.16498,1.16498 -3.02893,1.86397 -4.89288,1.86397 -1.86398,0 -3.49494,-0.69899 -4.89291,-1.86397 L 401.831,391.79206 c -1.16497,-1.16496 -1.86395,-3.02893 -1.86395,-4.89288 0,-1.86396 0.69898,-3.49492 1.86395,-4.89288 1.165,-1.165 3.02895,-1.86398 4.8929,-1.86398 1.86396,0 3.49492,0.69898 4.89289,1.86398 l 11.88274,11.88273 17.70761,-17.24163 z m -9.55279,-49.39491 c 0.93198,1.63096 5.82487,12.34873 1.63097,20.73655 -1.39797,3.02893 -7.68883,-0.23299 -10.95076,-5.1259 3.72791,-1.16496 7.45584,-3.02892 4.6599,-4.65989 -5.1259,-3.02894 -2.79594,-6.52385 -2.56295,-7.92182 0,0 0,-0.23299 -0.23299,-0.23299 3.26192,-3.02894 7.45583,-2.79595 7.45583,-2.79595 z m -25.86242,-15.14466 c 8.8538,0 16.77562,3.72792 22.13449,9.55279 -0.23298,0 -0.46598,0 -0.46598,0 -15.14465,0 -21.66851,4.65989 -23.53247,6.52385 0,0 0,0 -0.233,0.233 -0.233,0.23298 -0.46598,0.46598 -0.46598,0.46598 -0.93199,1.16499 -3.26194,4.6599 -3.26194,11.88275 0,12.58171 8.15481,23.06648 19.33857,26.56141 0,0.23299 0.23299,0.23299 0.23299,0.46599 -4.1939,2.09696 -8.8538,3.26192 -13.97968,3.26192 -13.9797,0 -25.86243,-9.31979 -29.35736,-21.90151 -0.69898,-2.32994 -0.93197,-4.8929 -0.93197,-7.45583 0.23299,-16.30965 13.97969,-29.59035 30.52233,-29.59035 z m -46.36599,105.31368 0,-64.30659 c 0,-1.16498 0.93199,-2.09695 2.09697,-2.09695 l 11.41673,0 c 1.16498,3.96091 3.26193,7.68883 5.59189,10.95075 l 0,55.45279 c 0,1.16496 -0.93198,2.09694 -2.09697,2.09694 l -14.91165,0 c -1.16498,0 -2.09697,-0.93198 -2.09697,-2.09694 z m 32.38629,54.52079 -3.96091,-3.96092 -14.67868,-14.67867 -13.0477,-13.04772 -0.233,-0.23298 2.79594,-2.79594 0.23299,0.23299 13.0477,13.04771 0,0 14.67868,14.67868 3.96093,3.96092 -2.79595,2.79593 z m 4.8929,-4.8929 -3.96093,-3.9609 -4.1939,-4.19392 -3.02893,-3.02893 -5.35888,-5.35888 c 3.72791,-2.79593 8.38781,-3.49492 12.34871,-1.63096 1.16499,0.46598 2.32997,1.39796 3.49494,2.32996 0,0 0,0 0,0 4.42689,4.1939 4.42689,10.95075 0.69899,15.84363 z m -1.86396,-20.50354 c -5.35888,-2.79593 -11.88275,-2.32995 -16.77563,1.86396 l -13.28071,-13.28071 11.41674,-11.41675 0.23299,0 c 3.02894,0 5.59188,-2.32994 6.29087,-5.12589 l 0,0 0,-0.69898 c 0,-0.23299 0,-0.23299 0,-0.46598 l 0,-43.57004 c 0.23299,-1.86397 0.93197,-3.72793 2.32994,-5.35888 5.82489,4.19391 13.04772,6.75684 20.73656,6.75684 5.82486,0 11.18375,-1.39796 16.07663,-3.96091 0.466,1.16497 0.69899,2.09695 0.69899,3.26194 l 0,12.5817 -7.92182,-7.92181 c -2.09695,-2.09695 -4.8929,-3.26193 -7.68884,-3.26193 -3.02892,0 -5.59187,1.16498 -7.68883,3.26193 -2.09696,2.09696 -3.26192,4.89289 -3.26192,7.68883 0,3.02894 1.16496,5.59187 3.26192,7.68883 l 14.67869,14.67868 c 2.09694,2.09695 4.89287,3.26192 7.68883,3.26192 0.23298,0 0.69898,0 0.93197,0 l 0,6.29087 -27.72638,27.72638 z m 31.2213,-25.39644 0.69898,-0.69899 0,-0.93198 0,-4.1939 12.58174,12.58173 c -2.79596,5.12587 -2.09697,11.88273 1.86395,16.77563 l -13.28072,13.28069 -19.10557,-19.10558 17.24162,-17.7076 z m 34.71624,13.51371 -14.67868,14.67866 -13.04771,13.04773 -0.233,0.23298 -2.79593,-2.79593 0.233,-0.23299 13.04769,-13.04772 0,0 14.67869,-14.67868 3.96091,-3.9609 2.79595,2.79593 -3.96092,3.96092 z m -97.85784,-71.99543 11.88273,0 0,2.79596 -11.88273,0 0,-2.79596 z m 0,4.8929 11.88273,0 0,2.79593 -11.88273,0 0,-2.79593 z m 0,4.6599 11.88273,0 0,2.79594 -11.88273,0 0,-2.79594 z"
         id="path3369" />
      <g
         transform="matrix(0.65965223,0,0,-0.65965223,126.17525,668.56754)"
         id="g3430">
        <g
           id="g3382"
           transform="matrix(1.1769495,0,0,1.1769495,189.47961,325.79125)"
           style="fill:#333333">
          <path
             id="path3384"
             d="m 69.7,85.2 c -0.1,0 -0.1,0 -0.2,-0.1 L 76,81.6 68.2,78.1 66.7,69.7 61,76 52.6,74.8 56.8,82.2 53,90 l 8.3,-1.7 6.1,5.9 0.6,-5.4 c 16.9,7.9 38.2,19.2 55,36.2 0.4,0.4 0.9,0.6 1.4,0.6 0.5,0 1,-0.2 1.4,-0.6 0.8,-0.8 0.8,-2 0,-2.8 -17.3,-17.5 -39.1,-29 -56.1,-37 z"
             inkscape:connector-curvature="0"
             style="fill:#333333" />
        </g>
        <g
           id="g3386"
           transform="matrix(1.1769495,0,0,1.1769495,189.47961,325.79125)"
           style="fill:#ac9393">
          <path
             id="path3388"
             d="M 98.4,70.9 C 80.4,60.3 58.8,48.3 35,39.8 L 47.5,33.1 32.1,26.1 29.1,9.4 17.7,21.9 1,19.6 9.3,34.4 2,49.6 18.5,46.2 30.7,58 32.4,43.1 c 24.1,8.4 45.9,20.5 64,31.2 9.6,6 19.6,12.3 26.6,20.4 0.4,0.4 0.9,0.7 1.5,0.7 0.5,0 0.9,-0.2 1.3,-0.5 0.8,-0.7 0.9,-2 0.2,-2.8 -7.5,-8.5 -17.7,-14.9 -27.6,-21.2 z"
             inkscape:connector-curvature="0"
             style="fill:#ac9393" />
        </g>
        <g
           id="g3390"
           transform="matrix(1.1769495,0,0,1.1769495,189.47961,325.79125)"
           style="fill:#d40000">
          <path
             id="path3392"
             d="m 53,22.7 8.3,-1.7 6.1,5.9 0.6,-5.4 c 14.7,6.4 28.3,14.3 40.6,23.6 5.9,4.5 10.8,8.8 14.9,13.3 0.4,0.4 0.9,0.6 1.5,0.6 0.5,0 1,-0.2 1.3,-0.5 0.8,-0.7 0.9,-2 0.1,-2.8 C 122.2,51.1 117.1,46.6 111,41.9 98.5,32.5 84.6,24.4 69.5,17.8 c 0,0 -0.1,0 -0.1,0 L 75.9,14.3 68.1,10.8 66.6,2.4 61,8.7 52.6,7.5 56.8,14.9 53,22.7 Z"
             inkscape:connector-curvature="0"
             style="fill:#d40000" />
        </g>
      </g>
      <path
         transform="translate(251.94227,307.44794)"
         inkscape:connector-curvature="0"
         id="path3452"
         d="m 179.23916,153.79161 -1.40253,-1.43632 16.05474,-16.05772 16.05475,-16.05772 1.53209,1.50364 1.5321,1.50363 -15.98745,15.99041 c -8.79309,8.79472 -16.07603,15.9904 -16.18431,15.9904 -0.10827,0 -0.828,-0.64634 -1.59939,-1.43632 z"
         style="fill:#d40000;fill-opacity:1;fill-rule:nonzero;stroke:none;stroke-width:0.5;stroke-linecap:round;stroke-linejoin:round;stroke-miterlimit:4;stroke-dasharray:none;stroke-dashoffset:0;stroke-opacity:1" />
      <path
         transform="translate(251.94227,307.44794)"
         inkscape:connector-curvature="0"
         id="path3454"
         d="m 123.79879,148.70859 c -8.69113,-8.69279 -15.80206,-15.97267 -15.80206,-16.17752 0,-0.20485 0.60636,-0.96456 1.34747,-1.68824 l 1.34748,-1.31577 16.054,16.05697 16.054,16.05697 -1.40253,1.43633 c -0.77139,0.78997 -1.49113,1.43632 -1.59941,1.43632 -0.10828,0 -7.30781,-7.11228 -15.99895,-15.80506 z"
         style="fill:#ac9393;fill-opacity:1;fill-rule:nonzero;stroke:none;stroke-width:0.5;stroke-linecap:round;stroke-linejoin:round;stroke-miterlimit:4;stroke-dasharray:none;stroke-dashoffset:0;stroke-opacity:1" />
      <path
         transform="translate(251.94227,307.44794)"
         inkscape:connector-curvature="0"
         id="path3456"
         d="m 108.86084,112.12294 c -1.44976,-0.51813 -1.42857,-0.008 -1.42857,-34.407915 0,-31.604137 0.0293,-33.117225 0.65312,-33.68174 0.55446,-0.501777 1.58124,-0.591067 6.79692,-0.591067 5.52956,0 6.16574,0.06249 6.36321,0.625 0.6835,1.947003 2.83935,6.273429 4.06108,8.1499 l 1.41138,2.167756 0,28.252751 0,28.252755 -0.94102,0.7402 c -0.88889,0.6992 -1.36869,0.73865 -8.66071,0.71201 -4.24584,-0.0155 -7.96077,-0.11435 -8.25541,-0.21965 z m 13.92857,-46.00215 0,-1.25 -5.89286,0 -5.89286,0 0,1.25 0,1.25 5.89286,0 5.89286,0 0,-1.25 z m 0,-4.642857 0,-1.25 -5.89286,0 -5.89286,0 0,1.25 0,1.25 5.89286,0 5.89286,0 0,-1.25 z m 0,-5 0,-1.25 -5.89286,0 -5.89286,0 0,1.25 0,1.25 5.89286,0 5.89286,0 0,-1.25 z"
         style="fill:#ffffff;fill-opacity:1;fill-rule:nonzero;stroke:none;stroke-width:0.5;stroke-linecap:round;stroke-linejoin:round;stroke-miterlimit:4;stroke-dasharray:none;stroke-dashoffset:0;stroke-opacity:1" />
      <path
         transform="translate(251.94227,307.44794)"
         inkscape:connector-curvature="0"
         id="path3458"
         d="m 119.2182,134.3353 -6.59968,-6.60693 5.88496,-5.89307 c 4.37336,-4.37941 6.10727,-5.89308 6.75049,-5.89308 1.39255,0 3.7245,-1.59358 4.59285,-3.13861 l 0.79973,-1.42293 0,-22.834182 c 0,-24.356698 0.0153,-24.59136 1.75583,-26.863739 l 0.66376,-0.866602 1.74467,1.11955 c 10.02726,6.434476 22.34286,7.429738 33.07531,2.672918 1.13354,-0.502408 2.17819,-0.796617 2.32142,-0.653796 0.34368,0.342671 0.55547,15.558818 0.21656,15.558818 -0.144,0 -2.44304,-2.143022 -5.10897,-4.762271 -5.4007,-5.306125 -6.5475,-5.952015 -10.56801,-5.952015 -7.52936,0 -12.86322,8.658734 -9.3886,15.24101 0.48692,0.922413 4.3634,5.121272 9.48034,10.268743 9.27824,9.333616 10.43287,10.204406 13.91331,10.493026 l 1.89438,0.1571 0,3.26106 0,3.26107 -13.87018,13.86676 -13.87018,13.86676 -1.34027,-0.56001 c -2.43488,-1.01735 -5.57574,-1.37783 -8.06778,-0.92594 -2.1899,0.3971 -6.13436,2.10015 -6.59665,2.84814 -0.12411,0.20083 -0.4187,0.36514 -0.65464,0.36514 -0.23593,0 -3.39882,-2.97312 -7.02865,-6.60692 z"
         style="fill:#ffffff;fill-opacity:1;fill-rule:nonzero;stroke:none;stroke-width:0.5;stroke-linecap:round;stroke-linejoin:round;stroke-miterlimit:4;stroke-dasharray:none;stroke-dashoffset:0;stroke-opacity:1" />
      <path
         transform="translate(251.94227,307.44794)"
         inkscape:connector-curvature="0"
         id="path3460"
         d="m 166.16195,100.22445 c -0.87529,-0.433271 -4.63823,-3.932469 -9.5052,-8.839 -7.68256,-7.74501 -8.07693,-8.209429 -8.50075,-10.010585 -0.7927,-3.368765 0.63879,-6.784874 3.39025,-8.090526 1.81482,-0.86119 4.68458,-0.822583 6.43451,0.08656 0.77869,0.404552 4.13523,3.468012 7.459,6.807688 l 6.0432,6.072139 8.71998,-8.457828 c 4.79598,-4.651805 8.82869,-8.498725 8.96158,-8.54871 0.13289,-0.04998 1.92505,1.598303 3.98258,3.662862 l 3.74097,3.753745 -11.42433,11.463106 c -7.44234,7.467598 -11.92226,11.696553 -12.8529,12.132864 -1.89529,0.88857 -4.61606,0.87494 -6.44889,-0.0323 z"
         style="fill:#ffffff;fill-opacity:1;fill-rule:nonzero;stroke:none;stroke-width:0.5;stroke-linecap:round;stroke-linejoin:round;stroke-miterlimit:4;stroke-dasharray:none;stroke-dashoffset:0;stroke-opacity:1" />
      <path
         transform="translate(251.94227,307.44794)"
         inkscape:connector-curvature="0"
         id="path3462"
         d="m 166.23121,140.99118 -9.58896,-9.59389 8.96644,-9.20169 8.96643,-9.20168 0,-2.45442 c 0,-1.34993 0.12226,-2.45442 0.27169,-2.45442 0.14942,0 3.07486,2.80661 6.50096,6.23691 l 6.22927,6.23691 -0.66474,1.35237 c -0.4299,0.8746 -0.72234,2.43725 -0.82777,4.42319 -0.18922,3.56432 0.44694,6.29648 2.09284,8.98812 0.57233,0.93599 1.04061,1.82155 1.04061,1.96791 0,0.29062 -12.9313,13.29459 -13.22029,13.29459 -0.0976,0 -4.49256,-4.31726 -9.76648,-9.5939 z"
         style="fill:#ffffff;fill-opacity:1;fill-rule:nonzero;stroke:none;stroke-width:0.5;stroke-linecap:round;stroke-linejoin:round;stroke-miterlimit:4;stroke-dasharray:none;stroke-dashoffset:0;stroke-opacity:1" />
      <path
         transform="translate(251.94227,307.44794)"
         inkscape:connector-curvature="0"
         id="path3464"
         d="m 189.87001,132.47704 c -1.03575,-2.10391 -1.179,-2.74253 -1.18309,-5.2743 -0.004,-2.52739 0.13627,-3.16695 1.1448,-5.21649 2.85352,-5.79896 9.9242,-7.98711 16.05553,-4.96867 l 2.34519,1.15454 -8.34366,8.34933 c -4.58902,4.59214 -8.45542,8.34934 -8.592,8.34934 -0.13658,0 -0.77862,-1.07719 -1.42677,-2.39375 z"
         style="fill:#ffffff;fill-opacity:1;fill-rule:nonzero;stroke:none;stroke-width:0.5;stroke-linecap:round;stroke-linejoin:round;stroke-miterlimit:4;stroke-dasharray:none;stroke-dashoffset:0;stroke-opacity:1" />
      <path
         transform="translate(251.94227,307.44794)"
         inkscape:connector-curvature="0"
         id="path3466"
         d="m 136.17935,151.29047 c -6.69529,-6.70493 -8.11246,-8.29233 -7.67566,-8.59769 0.29465,-0.20597 1.41965,-0.80452 2.5,-1.3301 2.65019,-1.28929 6.79354,-1.35096 9.43584,-0.14044 5.13681,2.35334 7.82346,7.1918 6.96828,12.5494 -0.34961,2.19031 -1.95413,5.74201 -2.59401,5.74201 -0.23269,0 -4.11819,-3.70043 -8.63445,-8.22318 z"
         style="fill:#ffffff;fill-opacity:1;fill-rule:nonzero;stroke:none;stroke-width:0.5;stroke-linecap:round;stroke-linejoin:round;stroke-miterlimit:4;stroke-dasharray:none;stroke-dashoffset:0;stroke-opacity:1" />
      <path
         transform="translate(251.94227,307.44794)"
         inkscape:connector-curvature="0"
         id="path3468"
         d="m 194.66667,69.067218 -2.56914,-2.589285 2.65466,-2.857143 c 2.97636,-3.203385 2.97937,-3.203274 3.97561,0.147657 0.39483,1.328014 0.50353,2.539764 0.34719,3.870046 -0.22437,1.908969 -1.04926,4.018011 -1.57155,4.018011 -0.14719,0 -1.42374,-1.165179 -2.83677,-2.589286 z"
         style="fill:#ffffff;fill-opacity:1;fill-rule:nonzero;stroke:none;stroke-width:0.5;stroke-linecap:round;stroke-linejoin:round;stroke-miterlimit:4;stroke-dasharray:none;stroke-dashoffset:0;stroke-opacity:1" />
      <path
         transform="translate(251.94227,307.44794)"
         inkscape:connector-curvature="0"
         id="path3470"
         d="m 148.08744,63.265079 c -9.59609,-1.824696 -17.84907,-8.01165 -21.91653,-16.430004 -3.50486,-7.253957 -3.90755,-14.196081 -1.26846,-21.867604 2.63744,-7.666754 8.45876,-13.995259 16.15713,-17.5648207 4.58507,-2.125993 7.20488,-2.676186 12.80126,-2.6884254 3.57136,-0.00781 5.46961,0.1602241 7.32143,0.6481004 2.97963,0.785009 7.66882,2.9052029 10.06189,4.5494336 2.04854,1.4075131 4.75953,3.8511961 4.75953,4.2902311 0,0.171411 -1.40625,0.312303 -3.125,0.313093 -6.6086,0.003 -14.65871,2.061255 -18.75006,4.793939 -2.32986,1.556154 -4.20049,4.075988 -4.92059,6.628297 -1.68558,5.974355 -1.14221,13.055646 1.44289,18.803899 2.45804,5.465732 7.2323,10.492965 12.43791,13.096965 1.70139,0.851082 3.45503,1.641542 3.897,1.756578 0.44196,0.115036 0.80357,0.367829 0.80357,0.561757 0,0.454425 -4.07507,2.08585 -6.90882,2.7659 -3.30634,0.793461 -9.54378,0.960529 -12.79315,0.342661 z"
         style="fill:#ffffff;fill-opacity:1;fill-rule:nonzero;stroke:none;stroke-width:0.5;stroke-linecap:round;stroke-linejoin:round;stroke-miterlimit:4;stroke-dasharray:none;stroke-dashoffset:0;stroke-opacity:1" />
      <path
         transform="translate(251.94227,307.44794)"
         inkscape:connector-curvature="0"
         id="path3472"
         d="m 178.14655,41.676041 c -1.98285,-0.597275 -4.02829,-1.921899 -5.89206,-3.815686 -1.08079,-1.098203 -1.96508,-2.103999 -1.96508,-2.235104 0,-0.131105 1.02974,-0.686975 2.28831,-1.235267 1.25856,-0.548292 2.58446,-1.324563 2.94642,-1.725047 0.64551,-0.714191 0.63442,-0.747957 -0.57838,-1.76115 -0.68008,-0.568148 -1.32294,-1.034096 -1.42857,-1.035438 -0.10564,-0.0013 -0.57366,-0.562781 -1.04006,-1.247642 -0.86714,-1.273317 -0.86768,-1.282589 -0.33878,-5.837812 0.12277,-1.057379 5.06664,-3.269248 7.30728,-3.269248 0.60907,0 2.45524,4.961587 3.18349,8.555658 0.71433,3.525369 0.55684,7.756054 -0.39578,10.631932 -0.8742,2.639137 -2.14067,3.561013 -4.08679,2.974804 z"
         style="fill:#ffffff;fill-opacity:1;fill-rule:nonzero;stroke:none;stroke-width:0.5;stroke-linecap:round;stroke-linejoin:round;stroke-miterlimit:4;stroke-dasharray:none;stroke-dashoffset:0;stroke-opacity:1" />
    </g>
  </g>
</svg>
